<svg xmlns="http://www.w3.org/2000/svg" xmlns:xlink="http://www.w3.org/1999/xlink" fill="none" version="1.1" width="457" height="146" viewBox="0 0 457 146"><defs><clipPath id="master_svg0_1_01"><rect x="0" y="0" width="457" height="146" rx="0"/></clipPath></defs><g clip-path="url(#master_svg0_1_01)"><rect x="0" y="0" width="457" height="146" rx="0" fill="#FFFFFF" fill-opacity="1"/><g transform="matrix(0,1,-1,0,166.83438110351562,-136.83438110351562)"><g transform="matrix(0,-1,1,0,6,297.66876220703125)"><path d="M151.83438110351562,210.85568110351562C151.83438110351562,174.94538110351561,180.64258110351562,145.83438110351562,216.17918110351565,145.83438110351562C251.71598110351562,145.83438110351562,280.5243811035156,174.94538110351561,280.5243811035156,210.85568110351562C280.5243811035156,210.85568110351562,280.5243811035156,210.85568110351562,280.5243811035156,210.85568110351562C280.5243811035156,215.23488110351562,276.97538110351564,218.78498110351563,272.59738110351566,218.78498110351563C272.59738110351566,218.78498110351563,257.06238110351563,218.78498110351563,257.06238110351563,218.78498110351563C252.68538110351562,218.78498110351563,249.13638110351565,215.23488110351562,249.13638110351565,210.85568110351562C249.13638110351565,210.85568110351562,249.13638110351565,210.85568110351562,249.13638110351565,210.85568110351562C249.13638110351565,192.46268110351562,234.3810811035156,177.55218110351564,216.17918110351565,177.55218110351564C197.97748110351563,177.55218110351564,183.22218110351562,192.46268110351562,183.22218110351562,210.85568110351562C183.22218110351562,210.85568110351562,183.22218110351562,210.85568110351562,183.22218110351562,210.85568110351562C183.22218110351562,215.23488110351562,179.67328110351562,218.78498110351563,175.29558110351562,218.78498110351563C175.29558110351562,218.78498110351563,159.76091110351564,218.78498110351563,159.76091110351564,218.78498110351563C155.38320110351563,218.78498110351563,151.83438110351562,215.23488110351562,151.83438110351562,210.85568110351562C151.83438110351562,210.85568110351562,151.83438110351562,210.85568110351562,151.83438110351562,210.85568110351562C151.83438110351562,210.85568110351562,151.83438110351562,210.85568110351562,151.83438110351562,210.85568110351562Z" fill-rule="evenodd" fill="#8759F2" fill-opacity="1"/></g><g transform="matrix(0,-1,1,0,89.67893981933594,381.34754943847656)"><path d="M244.65891462890625,178.01850480957032C239.60789462890625,178.01850480957032,235.51324462890625,173.9223048095703,235.51324462890625,168.8694048095703C235.51324462890625,168.8694048095703,235.51324462890625,154.9832948095703,235.51324462890625,154.9832948095703C235.51324462890625,149.9304448095703,239.60789462890625,145.8343048095703,244.65891462890625,145.8343048095703C244.65891462890625,145.8343048095703,258.54004462890623,145.8343048095703,258.54004462890623,145.8343048095703C263.5910446289063,145.8343048095703,267.68574462890626,149.9304448095703,267.68574462890626,154.9832948095703C267.68574462890626,154.9832948095703,267.68574462890626,168.8694048095703,267.68574462890626,168.8694048095703C267.68574462890626,173.9223048095703,263.5910446289063,178.01850480957032,258.54004462890623,178.01850480957032C258.54004462890623,178.01850480957032,244.65891462890625,178.01850480957032,244.65891462890625,178.01850480957032C244.65891462890625,178.01850480957032,244.65891462890625,178.01850480957032,244.65891462890625,178.01850480957032Z" fill-rule="evenodd" fill="#FF3E80" fill-opacity="1"/></g><g transform="matrix(0,1,-1,0,282.6971435546875,-252.6971435546875)"><path d="M344.9108435546875,38.0351C344.9108435546875,43.088,340.8164435546875,47.1842,335.7653435546875,47.1842C335.7653435546875,47.1842,276.8428135546875,47.1842,276.8428135546875,47.1842C271.7917935546875,47.1842,267.6971435546875,43.088,267.6971435546875,38.0351C267.6971435546875,38.0351,267.6971435546875,24.148989999999998,267.6971435546875,24.148989999999998C267.6971435546875,19.09614,271.7917935546875,15.000000081383,276.8428135546875,15.000000181774C276.8428135546875,15.000000181774,335.7653435546875,15.00000135289,335.7653435546875,15.00000135289C340.8164435546875,15.00000145327,344.9108435546875,19.09614,344.9108435546875,24.148989999999998C344.9108435546875,24.148989999999998,344.9108435546875,38.0351,344.9108435546875,38.0351C344.9108435546875,38.0351,344.9108435546875,38.0351,344.9108435546875,38.0351Z" fill-rule="evenodd" fill="#FFC300" fill-opacity="1"/></g></g><g><path d="M175.2,122L193.4,122L197.7,104.9L219.7,104.9L224,122L242.8,122L219.7,47.5L198.3,47.5L175.2,122ZM201.1,91.1L202.7,84.8C204.6,77.4,206.6,68.7,208.4,60.9L208.8,60.9C210.8,68.5,212.7,77.4,214.7,84.8L216.3,91.1L201.1,91.1ZM249.2,122L266.7,122L266.7,107.9L273.3,100.4L285.6,122L304.9,122L283.7,88.8L303.5,65.1L284,65.1L267.2,86.5L266.7,86.5L266.7,42.1L249.2,42.1L249.2,122ZM325.8,123.4C332.1,123.4,337.4,120.5,342.1,116.3L342.6,116.3L343.8,122L358.3,122L358.3,89.7C358.3,71.9,350,63.7,335.3,63.7C326.4,63.7,318.3,66.7,310.8,71.2L317,82.9C322.7,79.7,327.4,77.9,331.9,77.9C337.7,77.9,340.1,80.6,340.5,85.2C318.3,87.6,308.9,94.1,308.9,106.1C308.9,115.6,315.3,123.4,325.8,123.4ZM331.9,109.6C328.2,109.6,325.8,108,325.8,104.7C325.8,100.7,329.4,97.4,340.5,96L340.5,105.1C337.9,107.9,335.5,109.6,331.9,109.6ZM388.2,123.4C392.2,123.4,395.1,122.7,397,121.9L394.9,108.8C393.9,109,393.5,109,392.9,109C391.5,109,389.8,107.9,389.8,104.1L389.8,42.1L372,42.1L372,103.5C372,115.4,376,123.4,388.2,123.4ZM405.2,122L423,122L423,65.1L405.2,65.1L405.2,122ZM414.1,57.2C420,57.2,424,53.6,424,48C424,42.5,420,38.9,414.1,38.9C408.1,38.9,404.2,42.5,404.2,48C404.2,53.6,408.1,57.2,414.1,57.2Z" fill="#8759F2" fill-opacity="1"/></g></g></svg>